<?xml version="1.0" encoding="UTF-8" standalone="no"?>
<!DOCTYPE svg PUBLIC "-//W3C//DTD SVG 1.1//EN"
 "http://www.w3.org/Graphics/SVG/1.1/DTD/svg11.dtd">
<!-- Generated by graphviz version 2.47.0 (20210316.0004)
 -->
<!-- Title: dependencies Pages: 1 -->
<svg width="504pt" height="211pt"
 viewBox="0.00 0.00 504.00 211.00" xmlns="http://www.w3.org/2000/svg" xmlns:xlink="http://www.w3.org/1999/xlink">
<g id="graph0" class="graph" transform="scale(1 1) rotate(0) translate(4 207)">
<title>dependencies</title>
<polygon fill="white" stroke="transparent" points="-4,4 -4,-207 500,-207 500,4 -4,4"/>
<text text-anchor="start" x="227.01" y="-42.4" font-family="Times-12" font-weight="bold" font-size="14.00">Legend</text>
<polygon fill="#ffffb3" stroke="transparent" points="14,-10 14,-30 34,-30 34,-10 14,-10"/>
<text text-anchor="start" x="37.63" y="-15.4" font-family="Times-12" font-size="14.00"> &#160;Declarations</text>
<polygon fill="#8dd3c7" stroke="transparent" points="127,-10 127,-30 147,-30 147,-10 127,-10"/>
<text text-anchor="start" x="150.73" y="-15.4" font-family="Times-12" font-size="14.00"> &#160;Module</text>
<polygon fill="#80b1d3" stroke="transparent" points="213,-10 213,-30 233,-30 233,-10 213,-10"/>
<text text-anchor="start" x="236.78" y="-15.4" font-family="Times-12" font-size="14.00"> &#160;Bootstrap</text>
<polygon fill="#fdb462" stroke="transparent" points="310,-10 310,-30 330,-30 330,-10 310,-10"/>
<text text-anchor="start" x="333.67" y="-15.4" font-family="Times-12" font-size="14.00"> &#160;Providers</text>
<polygon fill="#fb8072" stroke="transparent" points="406,-10 406,-30 426,-30 426,-10 406,-10"/>
<text text-anchor="start" x="429.73" y="-15.4" font-family="Times-12" font-size="14.00"> &#160;Exports</text>
<g id="clust1" class="cluster">
<title>cluster_GamesPageModule</title>
<polygon fill="none" stroke="black" stroke-dasharray="1,5" points="35.5,-70 35.5,-195 460.5,-195 460.5,-70 35.5,-70"/>
</g>
<g id="clust2" class="cluster">
<title>cluster_GamesPageModule_declarations</title>
<polygon fill="none" stroke="black" points="354.5,-78 354.5,-130 452.5,-130 452.5,-78 354.5,-78"/>
</g>
<g id="clust4" class="cluster">
<title>cluster_GamesPageModule_imports</title>
<polygon fill="none" stroke="black" points="43.5,-78 43.5,-130 346.5,-130 346.5,-78 43.5,-78"/>
</g>
<!-- GamesPage -->
<g id="node1" class="node">
<title>GamesPage</title>
<polygon fill="#ffffb3" stroke="black" points="444.58,-122 362.42,-122 362.42,-86 444.58,-86 444.58,-122"/>
<text text-anchor="middle" x="403.5" y="-99.8" font-family="Times,serif" font-size="14.00">GamesPage</text>
</g>
<!-- GamesPageModule -->
<g id="node2" class="node">
<title>GamesPageModule</title>
<polygon fill="#8dd3c7" stroke="black" points="316.13,-187 313.13,-191 292.13,-191 289.13,-187 190.87,-187 190.87,-151 316.13,-151 316.13,-187"/>
<text text-anchor="middle" x="253.5" y="-164.8" font-family="Times,serif" font-size="14.00">GamesPageModule</text>
</g>
<!-- GamesPage&#45;&gt;GamesPageModule -->
<g id="edge1" class="edge">
<title>GamesPage&#45;&gt;GamesPageModule</title>
<path fill="none" stroke="black" d="M403.5,-122.11C403.5,-141.34 403.5,-169 403.5,-169 403.5,-169 326.24,-169 326.24,-169"/>
<polygon fill="black" stroke="black" points="326.24,-165.5 316.24,-169 326.24,-172.5 326.24,-165.5"/>
</g>
<!-- GamesPageRoutingModule -->
<g id="node3" class="node">
<title>GamesPageRoutingModule</title>
<polygon fill="#8dd3c7" stroke="black" points="338.75,-122 335.75,-126 314.75,-126 311.75,-122 168.25,-122 168.25,-86 338.75,-86 338.75,-122"/>
<text text-anchor="middle" x="253.5" y="-99.8" font-family="Times,serif" font-size="14.00">GamesPageRoutingModule</text>
</g>
<!-- GamesPageRoutingModule&#45;&gt;GamesPageModule -->
<g id="edge2" class="edge">
<title>GamesPageRoutingModule&#45;&gt;GamesPageModule</title>
<path fill="none" stroke="black" d="M253.5,-122.11C253.5,-122.11 253.5,-140.99 253.5,-140.99"/>
<polygon fill="black" stroke="black" points="250,-140.99 253.5,-150.99 257,-140.99 250,-140.99"/>
</g>
<!-- SharedModule -->
<g id="node4" class="node">
<title>SharedModule</title>
<polygon fill="#8dd3c7" stroke="black" points="149.92,-122 146.92,-126 125.92,-126 122.92,-122 51.08,-122 51.08,-86 149.92,-86 149.92,-122"/>
<text text-anchor="middle" x="100.5" y="-99.8" font-family="Times,serif" font-size="14.00">SharedModule</text>
</g>
<!-- SharedModule&#45;&gt;GamesPageModule -->
<g id="edge3" class="edge">
<title>SharedModule&#45;&gt;GamesPageModule</title>
<path fill="none" stroke="black" d="M100.5,-122.11C100.5,-141.34 100.5,-169 100.5,-169 100.5,-169 180.83,-169 180.83,-169"/>
<polygon fill="black" stroke="black" points="180.83,-172.5 190.83,-169 180.83,-165.5 180.83,-172.5"/>
</g>
</g>
</svg>
