<?xml version="1.0" encoding="UTF-8" standalone="no"?>
<!DOCTYPE svg PUBLIC "-//W3C//DTD SVG 1.1//EN"
 "http://www.w3.org/Graphics/SVG/1.1/DTD/svg11.dtd">
<!-- Generated by graphviz version 2.47.0 (20210316.0004)
 -->
<!-- Title: dependencies Pages: 1 -->
<svg width="513pt" height="211pt"
 viewBox="0.00 0.00 513.00 211.00" xmlns="http://www.w3.org/2000/svg" xmlns:xlink="http://www.w3.org/1999/xlink">
<g id="graph0" class="graph" transform="scale(1 1) rotate(0) translate(4 207)">
<title>dependencies</title>
<polygon fill="white" stroke="transparent" points="-4,4 -4,-207 509,-207 509,4 -4,4"/>
<text text-anchor="start" x="231.51" y="-42.4" font-family="Times-12" font-weight="bold" font-size="14.00">Legend</text>
<polygon fill="#ffffb3" stroke="transparent" points="18.5,-10 18.5,-30 38.5,-30 38.5,-10 18.5,-10"/>
<text text-anchor="start" x="42.13" y="-15.4" font-family="Times-12" font-size="14.00"> &#160;Declarations</text>
<polygon fill="#8dd3c7" stroke="transparent" points="131.5,-10 131.5,-30 151.5,-30 151.5,-10 131.5,-10"/>
<text text-anchor="start" x="155.23" y="-15.4" font-family="Times-12" font-size="14.00"> &#160;Module</text>
<polygon fill="#80b1d3" stroke="transparent" points="217.5,-10 217.5,-30 237.5,-30 237.5,-10 217.5,-10"/>
<text text-anchor="start" x="241.28" y="-15.4" font-family="Times-12" font-size="14.00"> &#160;Bootstrap</text>
<polygon fill="#fdb462" stroke="transparent" points="314.5,-10 314.5,-30 334.5,-30 334.5,-10 314.5,-10"/>
<text text-anchor="start" x="338.17" y="-15.4" font-family="Times-12" font-size="14.00"> &#160;Providers</text>
<polygon fill="#fb8072" stroke="transparent" points="410.5,-10 410.5,-30 430.5,-30 430.5,-10 410.5,-10"/>
<text text-anchor="start" x="434.23" y="-15.4" font-family="Times-12" font-size="14.00"> &#160;Exports</text>
<g id="clust1" class="cluster">
<title>cluster_UsersAdminPageModule</title>
<polygon fill="none" stroke="black" stroke-dasharray="1,5" points="8,-70 8,-195 497,-195 497,-70 8,-70"/>
</g>
<g id="clust2" class="cluster">
<title>cluster_UsersAdminPageModule_declarations</title>
<polygon fill="none" stroke="black" points="359,-78 359,-130 489,-130 489,-78 359,-78"/>
</g>
<g id="clust4" class="cluster">
<title>cluster_UsersAdminPageModule_imports</title>
<polygon fill="none" stroke="black" points="16,-78 16,-130 351,-130 351,-78 16,-78"/>
</g>
<!-- UsersAdminPage -->
<g id="node1" class="node">
<title>UsersAdminPage</title>
<polygon fill="#ffffb3" stroke="black" points="480.97,-122 367.03,-122 367.03,-86 480.97,-86 480.97,-122"/>
<text text-anchor="middle" x="424" y="-99.8" font-family="Times,serif" font-size="14.00">UsersAdminPage</text>
</g>
<!-- UsersAdminPageModule -->
<g id="node2" class="node">
<title>UsersAdminPageModule</title>
<polygon fill="#8dd3c7" stroke="black" points="372.52,-187 369.52,-191 348.52,-191 345.52,-187 215.48,-187 215.48,-151 372.52,-151 372.52,-187"/>
<text text-anchor="middle" x="294" y="-164.8" font-family="Times,serif" font-size="14.00">UsersAdminPageModule</text>
</g>
<!-- UsersAdminPage&#45;&gt;UsersAdminPageModule -->
<g id="edge1" class="edge">
<title>UsersAdminPage&#45;&gt;UsersAdminPageModule</title>
<path fill="none" stroke="black" d="M366.8,-104C359.83,-104 355.11,-104 355.11,-104 355.11,-104 355.11,-140.89 355.11,-140.89"/>
<polygon fill="black" stroke="black" points="351.61,-140.89 355.11,-150.89 358.61,-140.89 351.61,-140.89"/>
</g>
<!-- SharedModule -->
<g id="node3" class="node">
<title>SharedModule</title>
<polygon fill="#8dd3c7" stroke="black" points="343.42,-122 340.42,-126 319.42,-126 316.42,-122 244.58,-122 244.58,-86 343.42,-86 343.42,-122"/>
<text text-anchor="middle" x="294" y="-99.8" font-family="Times,serif" font-size="14.00">SharedModule</text>
</g>
<!-- SharedModule&#45;&gt;UsersAdminPageModule -->
<g id="edge2" class="edge">
<title>SharedModule&#45;&gt;UsersAdminPageModule</title>
<path fill="none" stroke="black" d="M294,-122.11C294,-122.11 294,-140.99 294,-140.99"/>
<polygon fill="black" stroke="black" points="290.5,-140.99 294,-150.99 297.5,-140.99 290.5,-140.99"/>
</g>
<!-- UsersAdminPageRoutingModule -->
<g id="node4" class="node">
<title>UsersAdminPageRoutingModule</title>
<polygon fill="#8dd3c7" stroke="black" points="226.14,-122 223.14,-126 202.14,-126 199.14,-122 23.86,-122 23.86,-86 226.14,-86 226.14,-122"/>
<text text-anchor="middle" x="125" y="-99.8" font-family="Times,serif" font-size="14.00">UsersAdminPageRoutingModule</text>
</g>
<!-- UsersAdminPageRoutingModule&#45;&gt;UsersAdminPageModule -->
<g id="edge3" class="edge">
<title>UsersAdminPageRoutingModule&#45;&gt;UsersAdminPageModule</title>
<path fill="none" stroke="black" d="M220.78,-122.11C220.78,-122.11 220.78,-140.99 220.78,-140.99"/>
<polygon fill="black" stroke="black" points="217.28,-140.99 220.78,-150.99 224.28,-140.99 217.28,-140.99"/>
</g>
</g>
</svg>
