<?xml version="1.0" encoding="UTF-8" standalone="no"?>
<!DOCTYPE svg PUBLIC "-//W3C//DTD SVG 1.1//EN"
 "http://www.w3.org/Graphics/SVG/1.1/DTD/svg11.dtd">
<!-- Generated by graphviz version 2.47.0 (20210316.0004)
 -->
<!-- Title: dependencies Pages: 1 -->
<svg width="2528pt" height="284pt"
 viewBox="0.00 0.00 2528.00 284.00" xmlns="http://www.w3.org/2000/svg" xmlns:xlink="http://www.w3.org/1999/xlink">
<g id="graph0" class="graph" transform="scale(1 1) rotate(0) translate(4 280)">
<title>dependencies</title>
<polygon fill="white" stroke="transparent" points="-4,4 -4,-280 2524,-280 2524,4 -4,4"/>
<text text-anchor="start" x="1239.01" y="-42.4" font-family="Times-12" font-weight="bold" font-size="14.00">Legend</text>
<polygon fill="#ffffb3" stroke="transparent" points="1026,-10 1026,-30 1046,-30 1046,-10 1026,-10"/>
<text text-anchor="start" x="1049.63" y="-15.4" font-family="Times-12" font-size="14.00"> &#160;Declarations</text>
<polygon fill="#8dd3c7" stroke="transparent" points="1139,-10 1139,-30 1159,-30 1159,-10 1139,-10"/>
<text text-anchor="start" x="1162.73" y="-15.4" font-family="Times-12" font-size="14.00"> &#160;Module</text>
<polygon fill="#80b1d3" stroke="transparent" points="1225,-10 1225,-30 1245,-30 1245,-10 1225,-10"/>
<text text-anchor="start" x="1248.78" y="-15.4" font-family="Times-12" font-size="14.00"> &#160;Bootstrap</text>
<polygon fill="#fdb462" stroke="transparent" points="1322,-10 1322,-30 1342,-30 1342,-10 1322,-10"/>
<text text-anchor="start" x="1345.67" y="-15.4" font-family="Times-12" font-size="14.00"> &#160;Providers</text>
<polygon fill="#fb8072" stroke="transparent" points="1418,-10 1418,-30 1438,-30 1438,-10 1418,-10"/>
<text text-anchor="start" x="1441.73" y="-15.4" font-family="Times-12" font-size="14.00"> &#160;Exports</text>
<g id="clust1" class="cluster">
<title>cluster_SharedModule</title>
<polygon fill="none" stroke="black" stroke-dasharray="1,5" points="8,-70 8,-268 2512,-268 2512,-70 8,-70"/>
</g>
<g id="clust2" class="cluster">
<title>cluster_SharedModule_declarations</title>
<polygon fill="none" stroke="black" points="39,-78 39,-130 2479,-130 2479,-78 39,-78"/>
</g>
<g id="clust19" class="cluster">
<title>cluster_SharedModule_exports</title>
<polygon fill="none" stroke="black" points="16,-208 16,-260 2504,-260 2504,-208 16,-208"/>
</g>
<!-- AppToolbarComponent -->
<g id="node1" class="node">
<title>AppToolbarComponent</title>
<polygon fill="#ffffb3" stroke="black" points="2470.76,-122 2321.24,-122 2321.24,-86 2470.76,-86 2470.76,-122"/>
<text text-anchor="middle" x="2396" y="-99.8" font-family="Times,serif" font-size="14.00">AppToolbarComponent</text>
</g>
<!-- SharedModule -->
<g id="node16" class="node">
<title>SharedModule</title>
<polygon fill="#8dd3c7" stroke="black" points="1335.42,-187 1332.42,-191 1311.42,-191 1308.42,-187 1236.58,-187 1236.58,-151 1335.42,-151 1335.42,-187"/>
<text text-anchor="middle" x="1286" y="-164.8" font-family="Times,serif" font-size="14.00">SharedModule</text>
</g>
<!-- AppToolbarComponent&#45;&gt;SharedModule -->
<g id="edge1" class="edge">
<title>AppToolbarComponent&#45;&gt;SharedModule</title>
<path fill="none" stroke="black" d="M2333.41,-122.17C2333.41,-141.09 2333.41,-168 2333.41,-168 2333.41,-168 1345.46,-168 1345.46,-168"/>
<polygon fill="black" stroke="black" points="1345.46,-164.5 1335.46,-168 1345.46,-171.5 1345.46,-164.5"/>
</g>
<!-- ErrorModalComponent -->
<g id="node2" class="node">
<title>ErrorModalComponent</title>
<polygon fill="#ffffb3" stroke="black" points="2302.92,-122 2155.08,-122 2155.08,-86 2302.92,-86 2302.92,-122"/>
<text text-anchor="middle" x="2229" y="-99.8" font-family="Times,serif" font-size="14.00">ErrorModalComponent</text>
</g>
<!-- ErrorModalComponent&#45;&gt;SharedModule -->
<g id="edge2" class="edge">
<title>ErrorModalComponent&#45;&gt;SharedModule</title>
<path fill="none" stroke="black" d="M2164.42,-122.27C2164.42,-140.56 2164.42,-166 2164.42,-166 2164.42,-166 1345.43,-166 1345.43,-166"/>
<polygon fill="black" stroke="black" points="1345.43,-162.5 1335.43,-166 1345.43,-169.5 1345.43,-162.5"/>
</g>
<!-- GameDetailComponent -->
<g id="node3" class="node">
<title>GameDetailComponent</title>
<polygon fill="#ffffb3" stroke="black" points="2137.47,-122 1988.53,-122 1988.53,-86 2137.47,-86 2137.47,-122"/>
<text text-anchor="middle" x="2063" y="-99.8" font-family="Times,serif" font-size="14.00">GameDetailComponent</text>
</g>
<!-- GameDetailComponent&#45;&gt;SharedModule -->
<g id="edge3" class="edge">
<title>GameDetailComponent&#45;&gt;SharedModule</title>
<path fill="none" stroke="black" d="M1995.64,-122.02C1995.64,-139.37 1995.64,-163 1995.64,-163 1995.64,-163 1345.34,-163 1345.34,-163"/>
<polygon fill="black" stroke="black" points="1345.34,-159.5 1335.34,-163 1345.34,-166.5 1345.34,-159.5"/>
</g>
<!-- GameInfoComponent -->
<g id="node4" class="node">
<title>GameInfoComponent</title>
<polygon fill="#ffffb3" stroke="black" points="1970.08,-122 1831.92,-122 1831.92,-86 1970.08,-86 1970.08,-122"/>
<text text-anchor="middle" x="1901" y="-99.8" font-family="Times,serif" font-size="14.00">GameInfoComponent</text>
</g>
<!-- GameInfoComponent&#45;&gt;SharedModule -->
<g id="edge4" class="edge">
<title>GameInfoComponent&#45;&gt;SharedModule</title>
<path fill="none" stroke="black" d="M1837.59,-122.04C1837.59,-138.73 1837.59,-161 1837.59,-161 1837.59,-161 1345.43,-161 1345.43,-161"/>
<polygon fill="black" stroke="black" points="1345.43,-157.5 1335.43,-161 1345.43,-164.5 1345.43,-157.5"/>
</g>
<!-- LoginFormComponent -->
<g id="node5" class="node">
<title>LoginFormComponent</title>
<polygon fill="#ffffb3" stroke="black" points="1813.61,-122 1668.39,-122 1668.39,-86 1813.61,-86 1813.61,-122"/>
<text text-anchor="middle" x="1741" y="-99.8" font-family="Times,serif" font-size="14.00">LoginFormComponent</text>
</g>
<!-- LoginFormComponent&#45;&gt;SharedModule -->
<g id="edge5" class="edge">
<title>LoginFormComponent&#45;&gt;SharedModule</title>
<path fill="none" stroke="black" d="M1672.57,-122.01C1672.57,-138.05 1672.57,-159 1672.57,-159 1672.57,-159 1345.35,-159 1345.35,-159"/>
<polygon fill="black" stroke="black" points="1345.35,-155.5 1335.35,-159 1345.35,-162.5 1345.35,-155.5"/>
</g>
<!-- NamePipe -->
<g id="node6" class="node">
<title>NamePipe</title>
<polygon fill="#ffffb3" stroke="black" points="1650.31,-122 1575.69,-122 1575.69,-86 1650.31,-86 1650.31,-122"/>
<text text-anchor="middle" x="1613" y="-99.8" font-family="Times,serif" font-size="14.00">NamePipe</text>
</g>
<!-- NamePipe&#45;&gt;SharedModule -->
<g id="edge6" class="edge">
<title>NamePipe&#45;&gt;SharedModule</title>
<path fill="none" stroke="black" d="M1627.14,-122.19C1627.14,-137.18 1627.14,-156 1627.14,-156 1627.14,-156 1345.24,-156 1345.24,-156"/>
<polygon fill="black" stroke="black" points="1345.24,-152.5 1335.24,-156 1345.24,-159.5 1345.24,-152.5"/>
</g>
<!-- PictureSelectableComponent -->
<g id="node7" class="node">
<title>PictureSelectableComponent</title>
<polygon fill="#ffffb3" stroke="black" points="1558.01,-122 1379.99,-122 1379.99,-86 1558.01,-86 1558.01,-122"/>
<text text-anchor="middle" x="1469" y="-99.8" font-family="Times,serif" font-size="14.00">PictureSelectableComponent</text>
</g>
<!-- PictureSelectableComponent&#45;&gt;SharedModule -->
<g id="edge7" class="edge">
<title>PictureSelectableComponent&#45;&gt;SharedModule</title>
<path fill="none" stroke="black" d="M1499.17,-122.05C1499.17,-136.37 1499.17,-154 1499.17,-154 1499.17,-154 1345.44,-154 1345.44,-154"/>
<polygon fill="black" stroke="black" points="1345.44,-150.5 1335.44,-154 1345.44,-157.5 1345.44,-150.5"/>
</g>
<!-- PlayerDetailComponent -->
<g id="node8" class="node">
<title>PlayerDetailComponent</title>
<polygon fill="#ffffb3" stroke="black" points="1361.8,-122 1210.2,-122 1210.2,-86 1361.8,-86 1361.8,-122"/>
<text text-anchor="middle" x="1286" y="-99.8" font-family="Times,serif" font-size="14.00">PlayerDetailComponent</text>
</g>
<!-- PlayerDetailComponent&#45;&gt;SharedModule -->
<g id="edge8" class="edge">
<title>PlayerDetailComponent&#45;&gt;SharedModule</title>
<path fill="none" stroke="black" d="M1286,-122.11C1286,-122.11 1286,-140.99 1286,-140.99"/>
<polygon fill="black" stroke="black" points="1282.5,-140.99 1286,-150.99 1289.5,-140.99 1282.5,-140.99"/>
</g>
<!-- PlayerInfoComponent -->
<g id="node9" class="node">
<title>PlayerInfoComponent</title>
<polygon fill="#ffffb3" stroke="black" points="1192.42,-122 1051.58,-122 1051.58,-86 1192.42,-86 1192.42,-122"/>
<text text-anchor="middle" x="1122" y="-99.8" font-family="Times,serif" font-size="14.00">PlayerInfoComponent</text>
</g>
<!-- PlayerInfoComponent&#45;&gt;SharedModule -->
<g id="edge9" class="edge">
<title>PlayerInfoComponent&#45;&gt;SharedModule</title>
<path fill="none" stroke="black" d="M1144.57,-122.05C1144.57,-136.37 1144.57,-154 1144.57,-154 1144.57,-154 1226.53,-154 1226.53,-154"/>
<polygon fill="black" stroke="black" points="1226.53,-157.5 1236.53,-154 1226.53,-150.5 1226.53,-157.5"/>
</g>
<!-- PositionImageDirective -->
<g id="node10" class="node">
<title>PositionImageDirective</title>
<polygon fill="#ffffb3" stroke="black" points="1033.46,-122 884.54,-122 884.54,-86 1033.46,-86 1033.46,-122"/>
<text text-anchor="middle" x="959" y="-99.8" font-family="Times,serif" font-size="14.00">PositionImageDirective</text>
</g>
<!-- PositionImageDirective&#45;&gt;SharedModule -->
<g id="edge10" class="edge">
<title>PositionImageDirective&#45;&gt;SharedModule</title>
<path fill="none" stroke="black" d="M980.99,-122.19C980.99,-137.18 980.99,-156 980.99,-156 980.99,-156 1226.66,-156 1226.66,-156"/>
<polygon fill="black" stroke="black" points="1226.66,-159.5 1236.66,-156 1226.66,-152.5 1226.66,-159.5"/>
</g>
<!-- PositionSelectorComponent -->
<g id="node11" class="node">
<title>PositionSelectorComponent</title>
<polygon fill="#ffffb3" stroke="black" points="866.6,-122 693.4,-122 693.4,-86 866.6,-86 866.6,-122"/>
<text text-anchor="middle" x="780" y="-99.8" font-family="Times,serif" font-size="14.00">PositionSelectorComponent</text>
</g>
<!-- PositionSelectorComponent&#45;&gt;SharedModule -->
<g id="edge11" class="edge">
<title>PositionSelectorComponent&#45;&gt;SharedModule</title>
<path fill="none" stroke="black" d="M862.42,-122.01C862.42,-138.05 862.42,-159 862.42,-159 862.42,-159 1226.58,-159 1226.58,-159"/>
<polygon fill="black" stroke="black" points="1226.58,-162.5 1236.58,-159 1226.58,-155.5 1226.58,-162.5"/>
</g>
<!-- RegisterFormComponent -->
<g id="node12" class="node">
<title>RegisterFormComponent</title>
<polygon fill="#ffffb3" stroke="black" points="675.32,-122 516.68,-122 516.68,-86 675.32,-86 675.32,-122"/>
<text text-anchor="middle" x="596" y="-99.8" font-family="Times,serif" font-size="14.00">RegisterFormComponent</text>
</g>
<!-- RegisterFormComponent&#45;&gt;SharedModule -->
<g id="edge12" class="edge">
<title>RegisterFormComponent&#45;&gt;SharedModule</title>
<path fill="none" stroke="black" d="M669.53,-122.04C669.53,-138.73 669.53,-161 669.53,-161 669.53,-161 1226.59,-161 1226.59,-161"/>
<polygon fill="black" stroke="black" points="1226.59,-164.5 1236.59,-161 1226.59,-157.5 1226.59,-164.5"/>
</g>
<!-- TeamDetailComponent -->
<g id="node13" class="node">
<title>TeamDetailComponent</title>
<polygon fill="#ffffb3" stroke="black" points="498.91,-122 351.09,-122 351.09,-86 498.91,-86 498.91,-122"/>
<text text-anchor="middle" x="425" y="-99.8" font-family="Times,serif" font-size="14.00">TeamDetailComponent</text>
</g>
<!-- TeamDetailComponent&#45;&gt;SharedModule -->
<g id="edge13" class="edge">
<title>TeamDetailComponent&#45;&gt;SharedModule</title>
<path fill="none" stroke="black" d="M491.58,-122.02C491.58,-139.37 491.58,-163 491.58,-163 491.58,-163 1226.61,-163 1226.61,-163"/>
<polygon fill="black" stroke="black" points="1226.61,-166.5 1236.61,-163 1226.61,-159.5 1226.61,-166.5"/>
</g>
<!-- TeamInfoComponent -->
<g id="node14" class="node">
<title>TeamInfoComponent</title>
<polygon fill="#ffffb3" stroke="black" points="333.03,-122 196.97,-122 196.97,-86 333.03,-86 333.03,-122"/>
<text text-anchor="middle" x="265" y="-99.8" font-family="Times,serif" font-size="14.00">TeamInfoComponent</text>
</g>
<!-- TeamInfoComponent&#45;&gt;SharedModule -->
<g id="edge14" class="edge">
<title>TeamInfoComponent&#45;&gt;SharedModule</title>
<path fill="none" stroke="black" d="M324.64,-122.27C324.64,-140.56 324.64,-166 324.64,-166 324.64,-166 1226.67,-166 1226.67,-166"/>
<polygon fill="black" stroke="black" points="1226.67,-169.5 1236.67,-166 1226.67,-162.5 1226.67,-169.5"/>
</g>
<!-- UserInfoComponent -->
<g id="node15" class="node">
<title>UserInfoComponent</title>
<polygon fill="#ffffb3" stroke="black" points="178.58,-122 47.42,-122 47.42,-86 178.58,-86 178.58,-122"/>
<text text-anchor="middle" x="113" y="-99.8" font-family="Times,serif" font-size="14.00">UserInfoComponent</text>
</g>
<!-- UserInfoComponent&#45;&gt;SharedModule -->
<g id="edge15" class="edge">
<title>UserInfoComponent&#45;&gt;SharedModule</title>
<path fill="none" stroke="black" d="M167.14,-122.17C167.14,-141.09 167.14,-168 167.14,-168 167.14,-168 1226.48,-168 1226.48,-168"/>
<polygon fill="black" stroke="black" points="1226.48,-171.5 1236.48,-168 1226.48,-164.5 1226.48,-171.5"/>
</g>
<!-- AppToolbarComponent  -->
<g id="node17" class="node">
<title>AppToolbarComponent </title>
<polygon fill="#fb8072" stroke="black" points="2495.76,-252 2342.24,-252 2342.24,-216 2495.76,-216 2495.76,-252"/>
<text text-anchor="middle" x="2419" y="-229.8" font-family="Times,serif" font-size="14.00">AppToolbarComponent </text>
</g>
<!-- SharedModule&#45;&gt;AppToolbarComponent  -->
<g id="edge16" class="edge">
<title>SharedModule&#45;&gt;AppToolbarComponent </title>
<path fill="none" stroke="black" stroke-dasharray="5,2" d="M1335.23,-171C1551.52,-171 2406.62,-171 2406.62,-171 2406.62,-171 2406.62,-205.78 2406.62,-205.78"/>
<polygon fill="black" stroke="black" points="2403.13,-205.78 2406.62,-215.78 2410.13,-205.78 2403.13,-205.78"/>
</g>
<!-- ErrorModalComponent  -->
<g id="node18" class="node">
<title>ErrorModalComponent </title>
<polygon fill="#fb8072" stroke="black" points="2324.42,-252 2173.58,-252 2173.58,-216 2324.42,-216 2324.42,-252"/>
<text text-anchor="middle" x="2249" y="-229.8" font-family="Times,serif" font-size="14.00">ErrorModalComponent </text>
</g>
<!-- SharedModule&#45;&gt;ErrorModalComponent  -->
<g id="edge17" class="edge">
<title>SharedModule&#45;&gt;ErrorModalComponent </title>
<path fill="none" stroke="black" stroke-dasharray="5,2" d="M1335.52,-173C1530.96,-173 2238.12,-173 2238.12,-173 2238.12,-173 2238.12,-205.7 2238.12,-205.7"/>
<polygon fill="black" stroke="black" points="2234.63,-205.7 2238.12,-215.7 2241.63,-205.7 2234.63,-205.7"/>
</g>
<!-- GameDetailComponent  -->
<g id="node19" class="node">
<title>GameDetailComponent </title>
<polygon fill="#fb8072" stroke="black" points="2155.47,-252 2002.53,-252 2002.53,-216 2155.47,-216 2155.47,-252"/>
<text text-anchor="middle" x="2079" y="-229.8" font-family="Times,serif" font-size="14.00">GameDetailComponent </text>
</g>
<!-- SharedModule&#45;&gt;GameDetailComponent  -->
<g id="edge18" class="edge">
<title>SharedModule&#45;&gt;GameDetailComponent </title>
<path fill="none" stroke="black" stroke-dasharray="5,2" d="M1335.35,-175C1507.36,-175 2070.12,-175 2070.12,-175 2070.12,-175 2070.12,-205.98 2070.12,-205.98"/>
<polygon fill="black" stroke="black" points="2066.63,-205.98 2070.12,-215.98 2073.63,-205.98 2066.63,-205.98"/>
</g>
<!-- GameInfoComponent  -->
<g id="node20" class="node">
<title>GameInfoComponent </title>
<polygon fill="#fb8072" stroke="black" points="1984.58,-252 1843.42,-252 1843.42,-216 1984.58,-216 1984.58,-252"/>
<text text-anchor="middle" x="1914" y="-229.8" font-family="Times,serif" font-size="14.00">GameInfoComponent </text>
</g>
<!-- SharedModule&#45;&gt;GameInfoComponent  -->
<g id="edge19" class="edge">
<title>SharedModule&#45;&gt;GameInfoComponent </title>
<path fill="none" stroke="black" stroke-dasharray="5,2" d="M1335.22,-178C1482.01,-178 1906.62,-178 1906.62,-178 1906.62,-178 1906.62,-205.97 1906.62,-205.97"/>
<polygon fill="black" stroke="black" points="1903.13,-205.97 1906.62,-215.97 1910.13,-205.97 1903.13,-205.97"/>
</g>
<!-- LoginFormComponent  -->
<g id="node21" class="node">
<title>LoginFormComponent </title>
<polygon fill="#fb8072" stroke="black" points="1825.11,-252 1676.89,-252 1676.89,-216 1825.11,-216 1825.11,-252"/>
<text text-anchor="middle" x="1751" y="-229.8" font-family="Times,serif" font-size="14.00">LoginFormComponent </text>
</g>
<!-- SharedModule&#45;&gt;LoginFormComponent  -->
<g id="edge20" class="edge">
<title>SharedModule&#45;&gt;LoginFormComponent </title>
<path fill="none" stroke="black" stroke-dasharray="5,2" d="M1335.57,-180C1454.29,-180 1745.12,-180 1745.12,-180 1745.12,-180 1745.12,-205.72 1745.12,-205.72"/>
<polygon fill="black" stroke="black" points="1741.63,-205.72 1745.12,-215.72 1748.63,-205.72 1741.63,-205.72"/>
</g>
<!-- NamePipe  -->
<g id="node22" class="node">
<title>NamePipe </title>
<polygon fill="#fb8072" stroke="black" points="1658.81,-252 1581.19,-252 1581.19,-216 1658.81,-216 1658.81,-252"/>
<text text-anchor="middle" x="1620" y="-229.8" font-family="Times,serif" font-size="14.00">NamePipe </text>
</g>
<!-- SharedModule&#45;&gt;NamePipe  -->
<g id="edge21" class="edge">
<title>SharedModule&#45;&gt;NamePipe </title>
<path fill="none" stroke="black" stroke-dasharray="5,2" d="M1335.36,-183C1424.71,-183 1604.11,-183 1604.11,-183 1604.11,-183 1604.11,-205.88 1604.11,-205.88"/>
<polygon fill="black" stroke="black" points="1600.61,-205.88 1604.11,-215.88 1607.61,-205.88 1600.61,-205.88"/>
</g>
<!-- PictureSelectableComponent  -->
<g id="node23" class="node">
<title>PictureSelectableComponent </title>
<polygon fill="#fb8072" stroke="black" points="1563.01,-252 1380.99,-252 1380.99,-216 1563.01,-216 1563.01,-252"/>
<text text-anchor="middle" x="1472" y="-229.8" font-family="Times,serif" font-size="14.00">PictureSelectableComponent </text>
</g>
<!-- SharedModule&#45;&gt;PictureSelectableComponent  -->
<g id="edge22" class="edge">
<title>SharedModule&#45;&gt;PictureSelectableComponent </title>
<path fill="none" stroke="black" stroke-dasharray="5,2" d="M1335.6,-185C1380.64,-185 1440.08,-185 1440.08,-185 1440.08,-185 1440.08,-205.75 1440.08,-205.75"/>
<polygon fill="black" stroke="black" points="1436.58,-205.75 1440.08,-215.75 1443.58,-205.75 1436.58,-205.75"/>
</g>
<!-- PlayerDetailComponent  -->
<g id="node24" class="node">
<title>PlayerDetailComponent </title>
<polygon fill="#fb8072" stroke="black" points="1363.3,-252 1208.7,-252 1208.7,-216 1363.3,-216 1363.3,-252"/>
<text text-anchor="middle" x="1286" y="-229.8" font-family="Times,serif" font-size="14.00">PlayerDetailComponent </text>
</g>
<!-- SharedModule&#45;&gt;PlayerDetailComponent  -->
<g id="edge23" class="edge">
<title>SharedModule&#45;&gt;PlayerDetailComponent </title>
<path fill="none" stroke="black" stroke-dasharray="5,2" d="M1286,-187.11C1286,-187.11 1286,-205.99 1286,-205.99"/>
<polygon fill="black" stroke="black" points="1282.5,-205.99 1286,-215.99 1289.5,-205.99 1282.5,-205.99"/>
</g>
<!-- PlayerInfoComponent  -->
<g id="node25" class="node">
<title>PlayerInfoComponent </title>
<polygon fill="#fb8072" stroke="black" points="1190.92,-252 1047.08,-252 1047.08,-216 1190.92,-216 1190.92,-252"/>
<text text-anchor="middle" x="1119" y="-229.8" font-family="Times,serif" font-size="14.00">PlayerInfoComponent </text>
</g>
<!-- SharedModule&#45;&gt;PlayerInfoComponent  -->
<g id="edge24" class="edge">
<title>SharedModule&#45;&gt;PlayerInfoComponent </title>
<path fill="none" stroke="black" stroke-dasharray="5,2" d="M1236.65,-185C1181,-185 1098.18,-185 1098.18,-185 1098.18,-185 1098.18,-205.75 1098.18,-205.75"/>
<polygon fill="black" stroke="black" points="1094.68,-205.75 1098.18,-215.75 1101.68,-205.75 1094.68,-205.75"/>
</g>
<!-- PositionImageDirective  -->
<g id="node26" class="node">
<title>PositionImageDirective </title>
<polygon fill="#fb8072" stroke="black" points="1029.46,-252 876.54,-252 876.54,-216 1029.46,-216 1029.46,-252"/>
<text text-anchor="middle" x="953" y="-229.8" font-family="Times,serif" font-size="14.00">PositionImageDirective </text>
</g>
<!-- SharedModule&#45;&gt;PositionImageDirective  -->
<g id="edge25" class="edge">
<title>SharedModule&#45;&gt;PositionImageDirective </title>
<path fill="none" stroke="black" stroke-dasharray="5,2" d="M1236.51,-183C1139.29,-183 932.76,-183 932.76,-183 932.76,-183 932.76,-205.88 932.76,-205.88"/>
<polygon fill="black" stroke="black" points="929.26,-205.88 932.76,-215.88 936.26,-205.88 929.26,-205.88"/>
</g>
<!-- PositionSelectorComponent  -->
<g id="node27" class="node">
<title>PositionSelectorComponent </title>
<polygon fill="#fb8072" stroke="black" points="858.1,-252 681.9,-252 681.9,-216 858.1,-216 858.1,-252"/>
<text text-anchor="middle" x="770" y="-229.8" font-family="Times,serif" font-size="14.00">PositionSelectorComponent </text>
</g>
<!-- SharedModule&#45;&gt;PositionSelectorComponent  -->
<g id="edge26" class="edge">
<title>SharedModule&#45;&gt;PositionSelectorComponent </title>
<path fill="none" stroke="black" stroke-dasharray="5,2" d="M1236.62,-180C1108.6,-180 775.88,-180 775.88,-180 775.88,-180 775.88,-205.72 775.88,-205.72"/>
<polygon fill="black" stroke="black" points="772.38,-205.72 775.88,-215.72 779.38,-205.72 772.38,-205.72"/>
</g>
<!-- RegisterFormComponent  -->
<g id="node28" class="node">
<title>RegisterFormComponent </title>
<polygon fill="#fb8072" stroke="black" points="663.82,-252 502.18,-252 502.18,-216 663.82,-216 663.82,-252"/>
<text text-anchor="middle" x="583" y="-229.8" font-family="Times,serif" font-size="14.00">RegisterFormComponent </text>
</g>
<!-- SharedModule&#45;&gt;RegisterFormComponent  -->
<g id="edge27" class="edge">
<title>SharedModule&#45;&gt;RegisterFormComponent </title>
<path fill="none" stroke="black" stroke-dasharray="5,2" d="M1236.53,-178C1077.61,-178 590.38,-178 590.38,-178 590.38,-178 590.38,-205.97 590.38,-205.97"/>
<polygon fill="black" stroke="black" points="586.88,-205.97 590.38,-215.97 593.88,-205.97 586.88,-205.97"/>
</g>
<!-- TeamDetailComponent  -->
<g id="node29" class="node">
<title>TeamDetailComponent </title>
<polygon fill="#fb8072" stroke="black" points="484.41,-252 333.59,-252 333.59,-216 484.41,-216 484.41,-252"/>
<text text-anchor="middle" x="409" y="-229.8" font-family="Times,serif" font-size="14.00">TeamDetailComponent </text>
</g>
<!-- SharedModule&#45;&gt;TeamDetailComponent  -->
<g id="edge28" class="edge">
<title>SharedModule&#45;&gt;TeamDetailComponent </title>
<path fill="none" stroke="black" stroke-dasharray="5,2" d="M1236.52,-175C1052.47,-175 417.88,-175 417.88,-175 417.88,-175 417.88,-205.98 417.88,-205.98"/>
<polygon fill="black" stroke="black" points="414.38,-205.98 417.88,-215.98 421.38,-205.98 414.38,-205.98"/>
</g>
<!-- TeamInfoComponent  -->
<g id="node30" class="node">
<title>TeamInfoComponent </title>
<polygon fill="#fb8072" stroke="black" points="316.03,-252 175.97,-252 175.97,-216 316.03,-216 316.03,-252"/>
<text text-anchor="middle" x="246" y="-229.8" font-family="Times,serif" font-size="14.00">TeamInfoComponent </text>
</g>
<!-- SharedModule&#45;&gt;TeamInfoComponent  -->
<g id="edge29" class="edge">
<title>SharedModule&#45;&gt;TeamInfoComponent </title>
<path fill="none" stroke="black" stroke-dasharray="5,2" d="M1236.69,-173C1031.54,-173 256.38,-173 256.38,-173 256.38,-173 256.38,-205.7 256.38,-205.7"/>
<polygon fill="black" stroke="black" points="252.88,-205.7 256.38,-215.7 259.88,-205.7 252.88,-205.7"/>
</g>
<!-- UserInfoComponent  -->
<g id="node31" class="node">
<title>UserInfoComponent </title>
<polygon fill="#fb8072" stroke="black" points="158.08,-252 23.92,-252 23.92,-216 158.08,-216 158.08,-252"/>
<text text-anchor="middle" x="91" y="-229.8" font-family="Times,serif" font-size="14.00">UserInfoComponent </text>
</g>
<!-- SharedModule&#45;&gt;UserInfoComponent  -->
<g id="edge30" class="edge">
<title>SharedModule&#45;&gt;UserInfoComponent </title>
<path fill="none" stroke="black" stroke-dasharray="5,2" d="M1236.67,-171C1012.75,-171 102.88,-171 102.88,-171 102.88,-171 102.88,-205.78 102.88,-205.78"/>
<polygon fill="black" stroke="black" points="99.38,-205.78 102.88,-215.78 106.38,-205.78 99.38,-205.78"/>
</g>
</g>
</svg>
