<?xml version="1.0" encoding="UTF-8" standalone="no"?>
<!DOCTYPE svg PUBLIC "-//W3C//DTD SVG 1.1//EN"
 "http://www.w3.org/Graphics/SVG/1.1/DTD/svg11.dtd">
<!-- Generated by graphviz version 2.47.0 (20210316.0004)
 -->
<!-- Title: dependencies Pages: 1 -->
<svg width="504pt" height="211pt"
 viewBox="0.00 0.00 504.00 211.00" xmlns="http://www.w3.org/2000/svg" xmlns:xlink="http://www.w3.org/1999/xlink">
<g id="graph0" class="graph" transform="scale(1 1) rotate(0) translate(4 207)">
<title>dependencies</title>
<polygon fill="white" stroke="transparent" points="-4,4 -4,-207 500,-207 500,4 -4,4"/>
<text text-anchor="start" x="227.01" y="-42.4" font-family="Times-12" font-weight="bold" font-size="14.00">Legend</text>
<polygon fill="#ffffb3" stroke="transparent" points="14,-10 14,-30 34,-30 34,-10 14,-10"/>
<text text-anchor="start" x="37.63" y="-15.4" font-family="Times-12" font-size="14.00"> &#160;Declarations</text>
<polygon fill="#8dd3c7" stroke="transparent" points="127,-10 127,-30 147,-30 147,-10 127,-10"/>
<text text-anchor="start" x="150.73" y="-15.4" font-family="Times-12" font-size="14.00"> &#160;Module</text>
<polygon fill="#80b1d3" stroke="transparent" points="213,-10 213,-30 233,-30 233,-10 213,-10"/>
<text text-anchor="start" x="236.78" y="-15.4" font-family="Times-12" font-size="14.00"> &#160;Bootstrap</text>
<polygon fill="#fdb462" stroke="transparent" points="310,-10 310,-30 330,-30 330,-10 310,-10"/>
<text text-anchor="start" x="333.67" y="-15.4" font-family="Times-12" font-size="14.00"> &#160;Providers</text>
<polygon fill="#fb8072" stroke="transparent" points="406,-10 406,-30 426,-30 426,-10 406,-10"/>
<text text-anchor="start" x="429.73" y="-15.4" font-family="Times-12" font-size="14.00"> &#160;Exports</text>
<g id="clust1" class="cluster">
<title>cluster_PlayersPageModule</title>
<polygon fill="none" stroke="black" stroke-dasharray="1,5" points="33,-70 33,-195 463,-195 463,-70 33,-70"/>
</g>
<g id="clust2" class="cluster">
<title>cluster_PlayersPageModule_declarations</title>
<polygon fill="none" stroke="black" points="355,-78 355,-130 455,-130 455,-78 355,-78"/>
</g>
<g id="clust4" class="cluster">
<title>cluster_PlayersPageModule_imports</title>
<polygon fill="none" stroke="black" points="41,-78 41,-130 347,-130 347,-78 41,-78"/>
</g>
<!-- PlayersPage -->
<g id="node1" class="node">
<title>PlayersPage</title>
<polygon fill="#ffffb3" stroke="black" points="447.42,-122 362.58,-122 362.58,-86 447.42,-86 447.42,-122"/>
<text text-anchor="middle" x="405" y="-99.8" font-family="Times,serif" font-size="14.00">PlayersPage</text>
</g>
<!-- PlayersPageModule -->
<g id="node2" class="node">
<title>PlayersPageModule</title>
<polygon fill="#8dd3c7" stroke="black" points="315.97,-187 312.97,-191 291.97,-191 288.97,-187 188.03,-187 188.03,-151 315.97,-151 315.97,-187"/>
<text text-anchor="middle" x="252" y="-164.8" font-family="Times,serif" font-size="14.00">PlayersPageModule</text>
</g>
<!-- PlayersPage&#45;&gt;PlayersPageModule -->
<g id="edge1" class="edge">
<title>PlayersPage&#45;&gt;PlayersPageModule</title>
<path fill="none" stroke="black" d="M405,-122.11C405,-141.34 405,-169 405,-169 405,-169 326,-169 326,-169"/>
<polygon fill="black" stroke="black" points="326,-165.5 316,-169 326,-172.5 326,-165.5"/>
</g>
<!-- PlayersPageRoutingModule -->
<g id="node3" class="node">
<title>PlayersPageRoutingModule</title>
<polygon fill="#8dd3c7" stroke="black" points="338.59,-122 335.59,-126 314.59,-126 311.59,-122 165.41,-122 165.41,-86 338.59,-86 338.59,-122"/>
<text text-anchor="middle" x="252" y="-99.8" font-family="Times,serif" font-size="14.00">PlayersPageRoutingModule</text>
</g>
<!-- PlayersPageRoutingModule&#45;&gt;PlayersPageModule -->
<g id="edge2" class="edge">
<title>PlayersPageRoutingModule&#45;&gt;PlayersPageModule</title>
<path fill="none" stroke="black" d="M252,-122.11C252,-122.11 252,-140.99 252,-140.99"/>
<polygon fill="black" stroke="black" points="248.5,-140.99 252,-150.99 255.5,-140.99 248.5,-140.99"/>
</g>
<!-- SharedModule -->
<g id="node4" class="node">
<title>SharedModule</title>
<polygon fill="#8dd3c7" stroke="black" points="147.42,-122 144.42,-126 123.42,-126 120.42,-122 48.58,-122 48.58,-86 147.42,-86 147.42,-122"/>
<text text-anchor="middle" x="98" y="-99.8" font-family="Times,serif" font-size="14.00">SharedModule</text>
</g>
<!-- SharedModule&#45;&gt;PlayersPageModule -->
<g id="edge3" class="edge">
<title>SharedModule&#45;&gt;PlayersPageModule</title>
<path fill="none" stroke="black" d="M98,-122.11C98,-141.34 98,-169 98,-169 98,-169 178.03,-169 178.03,-169"/>
<polygon fill="black" stroke="black" points="178.03,-172.5 188.03,-169 178.03,-165.5 178.03,-172.5"/>
</g>
</g>
</svg>
